<svg  xmlns="http://www.w3.org/2000/svg" xmlns:xlink="http://www.w3.org/1999/xlink" width="912" height="300" viewBox="0 0 936 324"><path transform="translate(0 100)" d="M77.9464,-76.0714L57.5893,-76.0714L59.4643,-89.4643L47.8571,-89.4643L45.9821,-76.0714L15.7143,-76.0714L9.01786,-28.2143L39.2857,-28.2143L35.3571,-0.0892857L46.9643,-0.0892857L50.8929,-28.2143L81.5179,-28.2143L88.9286,-80.9821C85.9821,-77.8571 81.875,-76.0714 77.9464,-76.0714ZM21.875,-37.2321L26.0714,-67.1429L44.7321,-67.1429L40.5357,-37.2321L21.875,-37.2321ZM52.1429,-37.2321L56.3393,-67.1429L75.4464,-67.1429L71.25,-37.2321L52.1429,-37.2321Z"></path><path transform="translate(87 100)" d="M0.714286,-0L19.2857,-0C26.0714,-4.91071 34.5536,-11.0714 42.3214,-16.875C48.3929,-11.0714 55.1786,-4.91071 60.625,-0L78.75,-0L78.9286,-0.267857C73.2143,-5.35714 61.7857,-15.5357 52.3214,-24.4643C56.5179,-27.8571 60,-30.7143 61.7857,-32.5C70.4464,-41.25 76.5179,-53.2143 78.125,-64.4643L78.9286,-70.2679L87.2321,-70.2679L89.1964,-84.0179C86.0714,-80.8036 82.1429,-79.2857 77.9464,-79.2857L57.1429,-79.2857L58.5714,-89.2857L46.875,-89.2857L45.4464,-79.2857L14.2857,-79.2857L12.9464,-70.2679L67.3214,-70.2679L66.5179,-64.4643C65.625,-57.8571 61.7857,-47.9464 54.0179,-40C52.4107,-38.3036 48.9286,-35.5357 44.4643,-32.0536C40.9821,-35.5357 38.3036,-38.3036 37.1429,-40C31.5179,-47.9464 30.625,-57.8571 31.5179,-64.4643L19.9107,-64.4643C18.3036,-53.2143 21.1607,-41.25 27.3214,-32.5C28.6607,-30.625 31.1607,-27.8571 34.4643,-24.4643C22.5,-15.5357 8.21429,-5.35714 0.714286,-0Z"></path><path transform="translate(174 100)" d="M3.92857,-0.267857L15.0893,-0.267857L27.3214,-87.5L16.1607,-87.5L3.92857,-0.267857ZM20.3571,-11.4286C25.0893,-15.4464 29.375,-20.5357 33.3929,-26.875C34.375,-21.9643 35.4464,-16.7857 36.3393,-11.4286L46.9643,-11.4286C44.9107,-22.4107 42.5893,-31.875 40.1786,-39.9107C43.125,-46.3393 45.8036,-53.75 48.2143,-61.9643C49.1071,-64.6429 50.0893,-67.7679 51.0714,-70.9821L39.9107,-70.9821C39.0179,-68.3036 38.125,-65.7143 37.7679,-63.5714C36.875,-60.8929 35.9821,-58.3036 35.0893,-55.8036C34.375,-57.6786 33.75,-59.375 33.125,-60.8929C31.7857,-65.7143 30.0893,-69.375 28.9286,-72.0536L26.25,-53.4821C27.4107,-50.3571 28.4821,-46.6964 29.6429,-42.5C27.5893,-37.8571 25.3571,-33.75 23.0357,-30.0893L20.3571,-11.4286ZM28.2143,-78.4821L77.1429,-78.4821L67.3214,-8.83929C67.2321,-10.1786 63.9286,-1.78571 59.8214,-0.267857L77.8571,-0.267857L90.7143,-92.2321C87.5893,-89.1071 82.8571,-87.5 79.4643,-87.5L29.4643,-87.5L28.2143,-78.4821ZM46.4286,-30.0893C46.4286,-30.0893 48.125,-23.125 49.2857,-17.3214C52.5,-20.8036 55.5357,-24.9107 58.3036,-29.7321C60.4464,-24.1964 62.6786,-17.8571 64.9107,-10.8929L67.8571,-31.6964C66.875,-34.8214 65.7143,-38.3929 64.4643,-41.9643C67.0536,-47.9464 69.375,-54.6429 71.6071,-61.9643C72.5,-64.6429 73.4821,-67.7679 74.4643,-70.9821L63.3036,-70.9821C62.4107,-68.3036 61.5179,-65.7143 61.1607,-63.5714L58.75,-56.6964C56.5179,-62.3214 54.1964,-67.5 52.2321,-71.5179L49.5536,-52.4107C50.5357,-49.9107 51.7857,-46.6964 53.3036,-42.9464C51.0714,-38.125 48.8393,-33.8393 46.4286,-30.0893Z"></path><path transform="translate(261 100)" d="M41.875,-45.8036L40.7143,-37.2321L8.66071,-37.2321L7.32143,-28.2143L39.375,-28.2143L36.7857,-9.46429C36.4286,-6.875 33.2143,-2.05357 29.0179,-0.0892857L47.1429,-0.0892857L51.0714,-28.2143L82.0536,-28.2143L84.1071,-42.5893C80.9821,-39.375 77.0536,-37.2321 72.7679,-37.2321L52.4107,-37.2321L52.6786,-39.2857C66.1607,-47.5 69.375,-55.8036 70.4464,-63.3929L71.6071,-71.875C68.4821,-68.6607 64.4643,-67.0536 60.7143,-67.0536L28.8393,-67.0536L27.5893,-58.0357L57.2321,-58.0357C55.5357,-54.6429 51.6071,-50.5357 41.875,-45.8036ZM14.0179,-61.7857L25.1786,-61.7857L26.9643,-74.0179L74.0179,-74.0179L72.3214,-61.7857L84.0179,-61.7857L87.6786,-87.8571C84.6429,-84.6429 80.7143,-83.0357 76.9643,-83.0357L57.7679,-83.0357L58.5714,-88.9286L46.875,-88.9286L46.0714,-83.0357L17.1429,-83.0357L15.8036,-74.0179L14.0179,-61.7857Z"></path><path transform="translate(348 100)" d="M48.75,-0L60.2679,-0L67.6786,-53.125L85.7143,-53.125L87.6786,-66.875C84.5536,-63.75 80.625,-62.1429 76.4286,-62.1429L69.0179,-62.1429L72.7679,-89.2857L61.25,-89.2857L57.5,-62.1429L39.4643,-62.1429L38.125,-53.125L56.1607,-53.125L48.75,-0ZM4.82143,-0C13.75,-1.33929 22.6786,-3.30357 31.6071,-5.80357L32.2321,-6.07143L33.6607,-16.0714C31.5179,-15.5357 29.1964,-14.9107 26.7857,-14.375L32.4107,-54.0179L33.2143,-60L34.2857,-67.7679C31.25,-64.6429 27.3214,-63.0357 23.125,-63.0357L12.0536,-63.0357L10.8036,-54.0179L20.8929,-54.0179L14.9107,-11.6071C11.6964,-10.9821 8.75,-10.4464 6.42857,-10.0893L6.25,-10.0893L4.82143,-0ZM23.2143,-89.1071C24.4643,-83.3929 26.25,-76.7857 28.6607,-70.625L40.8929,-70.625C38.0357,-76.4286 35.9821,-83.0357 34.5536,-89.1071L23.2143,-89.1071Z"></path><path transform="translate(435 100)" d="M38.3036,-0L52.4107,-0C48.5714,-6.33929 44.1964,-15.0893 40.8929,-26.25C51.1607,-37.5 56.4286,-47.6786 56.875,-48.4821L44.0179,-48.4821C42.5893,-46.25 40.4464,-43.125 37.6786,-39.7321C37.1429,-43.0357 36.6964,-46.4286 36.3393,-50C35.9821,-53.4821 35.7143,-56.875 35.4464,-60.1786L36.25,-60.2679C43.3929,-60.8036 50.5357,-61.7857 57.7679,-63.125L59.1071,-72.2321C51.6071,-70.8929 44.1964,-69.8214 36.6964,-69.1964L34.7321,-69.0179C34.1071,-77.1429 33.75,-84.1071 33.4821,-89.1071L21.6964,-89.1071C21.9643,-84.1071 22.3214,-76.7857 22.9464,-67.9464L12.2321,-66.9643L10.9821,-57.9464L23.5714,-59.1071L24.6429,-47.4107C25.1786,-41.25 26.25,-35.1786 27.6786,-29.2857C20.5357,-22.6786 12.7679,-16.6071 4.64286,-12.7679L2.85714,-0.0892857C14.1071,-4.19643 23.5714,-10.3571 31.25,-16.9643C33.3036,-10.9821 35.625,-5.26786 38.3036,-0ZM41.0714,-89.1071C41.875,-85.5357 43.0357,-80.1786 44.7321,-74.5536C48.4821,-75 52.1429,-75.625 55.8929,-76.25C54.375,-80.8036 53.2143,-85.3571 52.3214,-89.1071L41.0714,-89.1071ZM52.0536,-10.1786L62.1429,-10.1786L72.1429,-81.6964L62.0536,-81.6964L52.0536,-10.1786ZM58.6607,0.178571L78.3036,0.178571L90.8036,-89.2857L79.1071,-89.2857L67.9464,-9.91071C67.4107,-5.625 63.6607,-1.96429 58.6607,0.178571Z"></path><path transform="translate(0 200)" d="M14.375,-86.6071L13.125,-77.5L31.1607,-77.5L20.2679,-0.0892857L32.8571,-0.0892857L43.6607,-77.5L61.6071,-77.5L62.9464,-86.6071L63.5714,-91.5179C63.5714,-91.5179 63.4821,-91.5179 63.4821,-91.4286C60.5357,-88.3036 56.5179,-86.6071 52.5,-86.6071L14.375,-86.6071Z"></path><path transform="translate(57 200)" d="M18.5714,-87.3214L6.25,-0L18.0357,-0L24.7321,-47.6786C26.1607,-49.2857 29.2857,-50.8929 31.6071,-50.8929C33.2143,-50.8929 34.2857,-50.8929 35.8036,-50.3571C37.8571,-49.2857 39.1071,-47.1429 38.8393,-45L32.5,-0L49.1071,-0C46.3393,-2.58929 45.2679,-6.16071 45.625,-9.73214L51.1607,-48.75C51.9643,-54.6429 47.2321,-58.9286 40.8036,-58.9286L38.6607,-58.9286C35.625,-58.9286 29.9107,-58.3036 25.9821,-56.0714L30.3571,-87.3214L18.5714,-87.3214Z"></path><path transform="translate(112 200)" d="M34.1964,-44.4643L32.8571,-35.7143L18.4821,-35.7143L19.7321,-44.4643C20.1786,-47.6786 23.2143,-50.3571 26.4286,-50.3571L28.5714,-50.3571C32.3214,-50.3571 34.6429,-47.6786 34.1964,-44.4643ZM3.21429,-11.25C2.32143,-4.82143 6.51786,-0 12.9464,-0L28.4821,-0C34.375,-0 40.3571,-4.82143 41.25,-11.25L42.1429,-17.6786L30.3571,-17.6786L30,-15C29.5536,-11.7857 26.5179,-9.10714 22.7679,-9.10714L20.625,-9.10714C17.4107,-9.10714 15.0893,-11.7857 15.5357,-15L17.2321,-26.6071L43.3036,-26.6071L43.4821,-27.6786L46.5179,-48.2143C47.4107,-54.6429 42.6786,-59.4643 36.7857,-59.4643L21.25,-59.4643C14.8214,-59.4643 9.375,-54.6429 8.48214,-48.2143L3.21429,-11.25Z"></path><path transform="translate(160 200)" d=""></path><path transform="translate(200 200)" d="M8.48214,-0.0892857L20.1786,-0.0892857L25.8036,-40.4464L41.1607,-40.4464C51.5179,-40.4464 60.8929,-48.8393 62.3214,-59.1071L63.75,-68.75C65.1786,-78.9286 58.0357,-87.3214 47.7679,-87.3214L20.8036,-87.3214L8.48214,-0.0892857ZM27.1429,-49.5536L31.1607,-78.2143L45.4464,-78.2143C49.8214,-78.2143 52.8571,-74.6429 52.2321,-70.2679L50.4464,-57.5C49.8214,-53.125 45.8036,-49.5536 41.4286,-49.5536L27.1429,-49.5536Z"></path><path transform="translate(263 200)" d="M12.2321,-48.2143L5.44643,-0L16.6964,-0L22.9464,-44.4643C23.3929,-47.6786 26.4286,-50.3571 30.1786,-50.3571L32.3214,-50.3571L33.6607,-59.4643L24.5536,-59.4643C18.6607,-59.4643 13.125,-54.6429 12.2321,-48.2143Z"></path><path transform="translate(293 200)" d="M36.3393,-45.4464L32.0536,-14.8214C31.5179,-10.8929 27.8571,-8.125 24.4643,-8.125L22.2321,-8.125C18.9286,-8.125 16.5179,-10.8929 17.0536,-14.8214L21.3393,-45.4464C21.7857,-48.75 25,-51.5179 28.3929,-51.5179L30.625,-51.5179C33.9286,-51.5179 36.7857,-48.75 36.3393,-45.4464ZM5,-10.7143C4.19643,-4.82143 8.30357,0.535714 14.7321,0.535714L29.7321,0.535714C36.1607,0.535714 41.6964,-4.82143 42.5,-10.7143L47.7679,-48.2143C48.6607,-54.6429 44.5536,-59.4643 38.125,-59.4643L23.125,-59.4643C16.6964,-59.4643 11.1607,-54.6429 10.2679,-48.2143L5,-10.7143Z"></path><path transform="translate(342 200)" d="M17.7679,-80.8929L16.1607,-69.1071L27.9464,-69.1071L29.5536,-80.8929L17.7679,-80.8929ZM-5.80357,30L2.76786,30C9.19643,30 14.6429,25.1786 15.625,18.6607L26.6071,-59.4643L14.8214,-59.4643L4.28571,15C3.83929,18.2143 0.803571,20.8929 -2.41071,20.8929L-4.55357,20.8929L-5.80357,30Z"></path><path transform="translate(368 200)" d="M34.1964,-44.4643L32.8571,-35.7143L18.4821,-35.7143L19.7321,-44.4643C20.1786,-47.6786 23.2143,-50.3571 26.4286,-50.3571L28.5714,-50.3571C32.3214,-50.3571 34.6429,-47.6786 34.1964,-44.4643ZM3.21429,-11.25C2.32143,-4.82143 6.51786,-0 12.9464,-0L28.4821,-0C34.375,-0 40.3571,-4.82143 41.25,-11.25L42.1429,-17.6786L30.3571,-17.6786L30,-15C29.5536,-11.7857 26.5179,-9.10714 22.7679,-9.10714L20.625,-9.10714C17.4107,-9.10714 15.0893,-11.7857 15.5357,-15L17.2321,-26.6071L43.3036,-26.6071L43.4821,-27.6786L46.5179,-48.2143C47.4107,-54.6429 42.6786,-59.4643 36.7857,-59.4643L21.25,-59.4643C14.8214,-59.4643 9.375,-54.6429 8.48214,-48.2143L3.21429,-11.25Z"></path><path transform="translate(416 200)" d="M23.3929,0.178571L17.5,0.178571C8.92857,0.178571 2.94643,-6.78571 4.19643,-15.3571L8.39286,-45.3571C9.55357,-53.9286 17.5,-60.8929 26.0714,-60.8929L30.8929,-60.8929C40.5357,-60.8929 47.5,-52.8571 46.0714,-43.2143L45.7143,-40.5357L33.9286,-40.5357L34.4643,-44.2857C35.0893,-48.5714 32.3214,-51.7857 28.5714,-51.7857L26.9643,-51.7857C23.75,-51.7857 20.7143,-49.1071 20.2679,-45.8929L15.8929,-14.8214C15.4464,-11.6071 17.6786,-8.92857 20.8929,-8.92857L22.5,-8.92857C26.25,-8.92857 30,-12.6786 30.5357,-16.4286L31.6071,-23.9286L43.3929,-23.9286L42.3214,-16.4286C41.0714,-7.32143 32.5,0.178571 23.3929,0.178571Z"></path><path transform="translate(463 200)" d="M20.1786,-0L30.3571,-0L31.6964,-9.10714L28.4821,-9.10714C24.7321,-9.10714 22.4107,-11.7857 22.8571,-15L27.4107,-47.1429L40.2679,-47.1429L41.5179,-56.25L42.2321,-61.0714C40,-58.8393 37.3214,-57.0536 34.4643,-56.25L28.6607,-56.25L31.0714,-73.3929L19.2857,-73.3929L16.875,-56.25L7.76786,-56.25L6.51786,-47.1429L15.625,-47.1429L10.5357,-11.25C9.64286,-4.82143 14.2857,-0 20.1786,-0Z"></path><path transform="translate(505 200)" d=""></path><path transform="translate(545 200)" d="M20.7143,-86.7857L19.375,-77.6786L19.4643,-77.6786L8.48214,-0L20.1786,-0L25.8929,-40.8036L57.9464,-40.8036L59.2857,-49.9107L59.9107,-54.8214L59.8214,-54.8214C56.875,-51.6071 52.8571,-49.9107 48.9286,-49.9107L27.2321,-49.9107L31.1607,-77.6786L64.7321,-77.6786L66.0714,-86.7857L20.7143,-86.7857Z"></path><path transform="translate(608 200)" d="M36.3393,-45.4464L32.0536,-14.8214C31.5179,-10.8929 27.8571,-8.125 24.4643,-8.125L22.2321,-8.125C18.9286,-8.125 16.5179,-10.8929 17.0536,-14.8214L21.3393,-45.4464C21.7857,-48.75 25,-51.5179 28.3929,-51.5179L30.625,-51.5179C33.9286,-51.5179 36.7857,-48.75 36.3393,-45.4464ZM5,-10.7143C4.19643,-4.82143 8.30357,0.535714 14.7321,0.535714L29.7321,0.535714C36.1607,0.535714 41.6964,-4.82143 42.5,-10.7143L47.7679,-48.2143C48.6607,-54.6429 44.5536,-59.4643 38.125,-59.4643L23.125,-59.4643C16.6964,-59.4643 11.1607,-54.6429 10.2679,-48.2143L5,-10.7143Z"></path><path transform="translate(657 200)" d="M12.2321,-48.2143L5.44643,-0L16.6964,-0L22.9464,-44.4643C23.3929,-47.6786 26.4286,-50.3571 30.1786,-50.3571L32.3214,-50.3571L33.6607,-59.4643L24.5536,-59.4643C18.6607,-59.4643 13.125,-54.6429 12.2321,-48.2143Z"></path><path transform="translate(687 200)" d=""></path><path transform="translate(727 200)" d="M27.9464,-87.3214L16.25,-87.3214L17.8571,-0.0892857L30.2679,-0.0892857L47.7679,-55.7143L48.8393,-0.0892857L61.25,-0.0892857L87.5,-87.3214L75.8036,-87.3214L56.6071,-21.3393L57.3214,-86.25L47.1429,-86.25L28.5714,-21.3393L27.9464,-87.3214Z"></path><path transform="translate(811 200)" d="M34.1964,-44.4643L32.8571,-35.7143L18.4821,-35.7143L19.7321,-44.4643C20.1786,-47.6786 23.2143,-50.3571 26.4286,-50.3571L28.5714,-50.3571C32.3214,-50.3571 34.6429,-47.6786 34.1964,-44.4643ZM3.21429,-11.25C2.32143,-4.82143 6.51786,-0 12.9464,-0L28.4821,-0C34.375,-0 40.3571,-4.82143 41.25,-11.25L42.1429,-17.6786L30.3571,-17.6786L30,-15C29.5536,-11.7857 26.5179,-9.10714 22.7679,-9.10714L20.625,-9.10714C17.4107,-9.10714 15.0893,-11.7857 15.5357,-15L17.2321,-26.6071L43.3036,-26.6071L43.4821,-27.6786L46.5179,-48.2143C47.4107,-54.6429 42.6786,-59.4643 36.7857,-59.4643L21.25,-59.4643C14.8214,-59.4643 9.375,-54.6429 8.48214,-48.2143L3.21429,-11.25Z"></path><path transform="translate(859 200)" d="M0.178571,-0L32.3214,-0C38.2143,-0 43.6607,-4.82143 44.5536,-11.25L49.8214,-48.2143C50.625,-54.1071 46.4286,-58.9286 40.5357,-58.9286L25,-58.9286L29.0179,-87.3214L17.2321,-87.3214L6.42857,-9.91071C5.80357,-6.25 3.57143,-2.14286 0.178571,-0ZM18.0357,-9.10714L23.8393,-50.3571L32.4107,-50.3571C36.1607,-50.3571 38.3929,-47.1429 37.9464,-43.9286L33.8393,-15C33.3929,-11.7857 30.3571,-9.10714 26.6071,-9.10714L18.0357,-9.10714Z"></path></svg>